<mxfile host="65bd71144e" scale="5" border="10">
    <diagram id="8L9aVejFhc21wHGrLeon" name="ページ1">
        <mxGraphModel dx="1091" dy="1161" grid="1" gridSize="10" guides="1" tooltips="1" connect="1" arrows="1" fold="1" page="1" pageScale="1" pageWidth="1169" pageHeight="827" background="#ffffff" math="0" shadow="0">
            <root>
                <mxCell id="0"/>
                <mxCell id="1" parent="0"/>
                <mxCell id="49" value="：チャット" style="ellipse;shape=umlEntity;whiteSpace=wrap;html=1;" parent="1" vertex="1">
                    <mxGeometry x="1010" y="290" width="80" height="80" as="geometry"/>
                </mxCell>
                <mxCell id="73" style="edgeStyle=none;html=1;entryX=0;entryY=0.5;entryDx=0;entryDy=0;endArrow=none;endFill=0;" parent="1" source="53" target="49" edge="1">
                    <mxGeometry relative="1" as="geometry"/>
                </mxCell>
                <mxCell id="88" style="edgeStyle=none;html=1;endArrow=none;endFill=0;" edge="1" parent="1" source="53" target="86">
                    <mxGeometry relative="1" as="geometry"/>
                </mxCell>
                <mxCell id="53" value="：会話管理" style="ellipse;shape=umlControl;whiteSpace=wrap;html=1;" parent="1" vertex="1">
                    <mxGeometry x="720" y="290" width="70" height="80" as="geometry"/>
                </mxCell>
                <mxCell id="72" style="edgeStyle=none;html=1;endArrow=none;endFill=0;" parent="1" source="58" target="53" edge="1">
                    <mxGeometry relative="1" as="geometry"/>
                </mxCell>
                <mxCell id="58" value=": チャット&lt;br&gt;ページ" style="shape=umlBoundary;whiteSpace=wrap;html=1;" parent="1" vertex="1">
                    <mxGeometry x="430" y="290" width="100" height="80" as="geometry"/>
                </mxCell>
                <mxCell id="71" style="edgeStyle=none;html=1;endArrow=none;endFill=0;" parent="1" source="69" target="58" edge="1">
                    <mxGeometry relative="1" as="geometry"/>
                </mxCell>
                <mxCell id="69" value="：ユーザ" style="shape=umlActor;verticalLabelPosition=bottom;verticalAlign=top;html=1;outlineConnect=0;" parent="1" vertex="1">
                    <mxGeometry x="190" y="300" width="30" height="60" as="geometry"/>
                </mxCell>
                <mxCell id="76" value="1 : get()" style="html=1;verticalAlign=bottom;labelBackgroundColor=none;endArrow=open;endFill=0;" parent="1" edge="1">
                    <mxGeometry width="160" relative="1" as="geometry">
                        <mxPoint x="250" y="289.31" as="sourcePoint"/>
                        <mxPoint x="410" y="289.31" as="targetPoint"/>
                        <mxPoint as="offset"/>
                    </mxGeometry>
                </mxCell>
                <mxCell id="78" value="2 : get_user_chat(user_id)" style="html=1;verticalAlign=bottom;labelBackgroundColor=none;endArrow=open;endFill=0;" parent="1" edge="1">
                    <mxGeometry width="160" relative="1" as="geometry">
                        <mxPoint x="550" y="290" as="sourcePoint"/>
                        <mxPoint x="710" y="290" as="targetPoint"/>
                        <mxPoint as="offset"/>
                    </mxGeometry>
                </mxCell>
                <mxCell id="79" value="3 : 取得（chats）" style="html=1;verticalAlign=bottom;labelBackgroundColor=none;endArrow=open;endFill=0;" parent="1" edge="1">
                    <mxGeometry width="160" relative="1" as="geometry">
                        <mxPoint x="820" y="290" as="sourcePoint"/>
                        <mxPoint x="980" y="290" as="targetPoint"/>
                        <mxPoint as="offset"/>
                    </mxGeometry>
                </mxCell>
                <mxCell id="80" value="10 :&amp;nbsp;get()&amp;nbsp;" style="html=1;verticalAlign=bottom;labelBackgroundColor=none;endArrow=open;endFill=0;" parent="1" edge="1" target="58" source="58">
                    <mxGeometry y="10" width="160" relative="1" as="geometry">
                        <mxPoint x="490" y="400" as="sourcePoint"/>
                        <mxPoint x="440" y="450" as="targetPoint"/>
                        <mxPoint as="offset"/>
                        <Array as="points">
                            <mxPoint x="520" y="490"/>
                        </Array>
                    </mxGeometry>
                </mxCell>
                <mxCell id="81" value="チャットメッセージ送信" style="text;html=1;align=center;verticalAlign=middle;resizable=0;points=[];autosize=1;strokeColor=none;fillColor=none;fontSize=32;" parent="1" vertex="1">
                    <mxGeometry x="10" y="10" width="380" height="50" as="geometry"/>
                </mxCell>
                <mxCell id="82" value="4 : post()" style="html=1;verticalAlign=bottom;labelBackgroundColor=none;endArrow=open;endFill=0;" edge="1" parent="1">
                    <mxGeometry width="160" relative="1" as="geometry">
                        <mxPoint x="249.9999999999999" y="320" as="sourcePoint"/>
                        <mxPoint x="410" y="320" as="targetPoint"/>
                        <mxPoint as="offset"/>
                    </mxGeometry>
                </mxCell>
                <mxCell id="84" value="5 : send_message(user_id, message)" style="html=1;verticalAlign=bottom;labelBackgroundColor=none;endArrow=open;endFill=0;" edge="1" parent="1">
                    <mxGeometry width="160" relative="1" as="geometry">
                        <mxPoint x="550" y="320" as="sourcePoint"/>
                        <mxPoint x="710" y="320" as="targetPoint"/>
                        <mxPoint as="offset"/>
                    </mxGeometry>
                </mxCell>
                <mxCell id="85" value="6[messageの値が正しい] : &lt;br&gt;作成Chat(user_id, message, role='user')" style="html=1;verticalAlign=bottom;labelBackgroundColor=none;endArrow=open;endFill=0;" edge="1" parent="1">
                    <mxGeometry width="160" relative="1" as="geometry">
                        <mxPoint x="820" y="320" as="sourcePoint"/>
                        <mxPoint x="980" y="320" as="targetPoint"/>
                        <mxPoint as="offset"/>
                    </mxGeometry>
                </mxCell>
                <mxCell id="91" style="edgeStyle=none;html=1;endArrow=none;endFill=0;" edge="1" parent="1" source="86" target="90">
                    <mxGeometry relative="1" as="geometry"/>
                </mxCell>
                <mxCell id="94" style="edgeStyle=none;html=1;endArrow=none;endFill=0;" edge="1" parent="1" source="86" target="49">
                    <mxGeometry relative="1" as="geometry"/>
                </mxCell>
                <mxCell id="86" value="：分析管理" style="ellipse;shape=umlControl;whiteSpace=wrap;html=1;" vertex="1" parent="1">
                    <mxGeometry x="720" y="580" width="70" height="80" as="geometry"/>
                </mxCell>
                <mxCell id="89" value="7 : generate_chat_response(messages)&amp;nbsp;" style="html=1;verticalAlign=bottom;labelBackgroundColor=none;endArrow=open;endFill=0;" edge="1" parent="1">
                    <mxGeometry x="-1" y="90" width="160" relative="1" as="geometry">
                        <mxPoint x="770" y="400" as="sourcePoint"/>
                        <mxPoint x="770" y="560" as="targetPoint"/>
                        <mxPoint as="offset"/>
                    </mxGeometry>
                </mxCell>
                <mxCell id="90" value="：EmotionAI" style="ellipse;shape=umlEntity;whiteSpace=wrap;html=1;" vertex="1" parent="1">
                    <mxGeometry x="1010" y="580" width="80" height="80" as="geometry"/>
                </mxCell>
                <mxCell id="93" value="8 : generate_chat_response(messages)" style="html=1;verticalAlign=bottom;labelBackgroundColor=none;endArrow=open;endFill=0;" edge="1" parent="1">
                    <mxGeometry width="160" relative="1" as="geometry">
                        <mxPoint x="820.0000000000002" y="610" as="sourcePoint"/>
                        <mxPoint x="979.9999999999998" y="610" as="targetPoint"/>
                        <mxPoint as="offset"/>
                    </mxGeometry>
                </mxCell>
                <mxCell id="95" value="9 : 作成 Chat(user_id, response, role='assistant')" style="html=1;verticalAlign=bottom;labelBackgroundColor=none;endArrow=open;endFill=0;" edge="1" parent="1">
                    <mxGeometry x="0.4275" y="-104" width="160" relative="1" as="geometry">
                        <mxPoint x="830" y="570" as="sourcePoint"/>
                        <mxPoint x="1000" y="400" as="targetPoint"/>
                        <mxPoint as="offset"/>
                    </mxGeometry>
                </mxCell>
            </root>
        </mxGraphModel>
    </diagram>
</mxfile>